<?xml version="1.0" encoding="UTF-8" standalone="no"?>
<!DOCTYPE svg PUBLIC "-//W3C//DTD SVG 1.1//EN" "http://www.w3.org/Graphics/SVG/1.1/DTD/svg11.dtd">
<svg version="1.1" width="1024" height="1024" viewBox="0 0 1024 1024" xmlns="http://www.w3.org/2000/svg" xmlns:xlink="http://www.w3.org/1999/xlink">
    <path d="M909.9 343.8c-21.8-51.4-52.9-97.6-92.6-137.3-39.7-39.7-85.9-70.8-137.3-92.6C626.8 91.4 570.2 80 511.9 80S397 91.4 343.7 114c-51.4 21.8-97.6 52.9-137.3 92.6s-70.8 85.9-92.6 137.3C91.3 397.1 79.9 453.7 79.9 512s11.4 114.9 34 168.2c21.8 51.4 52.9 97.6 92.6 137.3s85.9 70.8 137.3 92.6c53.3 22.5 109.9 34 168.2 34 58.3 0 114.9-11.4 168.2-34 51.4-21.8 97.6-52.9 137.3-92.6 39.7-39.7 70.8-85.9 92.6-137.3 22.5-53.3 34-109.9 34-168.2s-11.6-114.9-34.2-168.2z m-137.8-92c16.3 16.3 30.9 33.9 43.6 52.5l-146.3 84.5c-31.2-39.8-77.1-67.5-129.5-74.8V145c87.7 6.6 169.4 43.9 232.2 106.8zM511.9 656c-38.5 0-74.6-15-101.8-42.2s-42.2-63.3-42.2-101.8 15-74.6 42.2-101.8S473.4 368 511.9 368s74.6 15 101.8 42.2c27.2 27.2 42.2 63.3 42.2 101.8s-15 74.6-42.2 101.8C586.5 641 550.4 656 511.9 656z m-28-511v169c-52.4 7.3-98.3 35-129.5 74.8l-146.3-84.5c12.8-18.6 27.3-36.2 43.6-52.5 62.8-62.9 144.5-100.2 232.2-106.8zM180 352.7l146.4 84.5c-9.3 23.1-14.5 48.3-14.5 74.8 0 26.4 5.1 51.7 14.5 74.8L180 671.2c-23.6-49-36.1-103.2-36.1-159.2s12.5-110.2 36.1-159.3z m71.7 419.5c-16.3-16.3-30.9-33.9-43.6-52.5l146.3-84.5c31.2 39.8 77.1 67.5 129.5 74.8v169c-87.7-6.6-169.4-44-232.2-106.8zM539.9 879V710c52.4-7.3 98.3-35 129.5-74.8l146.3 84.5c-12.8 18.6-27.3 36.2-43.6 52.5C709.3 835 627.6 872.4 539.9 879z m303.9-207.8l-146.4-84.5c9.3-23.1 14.5-48.3 14.5-74.8 0-26.4-5.1-51.7-14.5-74.8l146.4-84.5c23.6 49.1 36.1 103.2 36.1 159.3s-12.5 110.3-36.1 159.3z" opacity=".65"/>
    <path d="M815.7 719.8l-146.3-84.5c-31.2 39.7-77.1 67.4-129.5 74.7v169c87.7-6.6 169.4-43.9 232.2-106.7 16.3-16.4 30.9-34.1 43.6-52.5z" fill="#68B700"/>
    <path d="M483.9 879V710c-52.4-7.3-98.3-35-129.5-74.8l-146.3 84.5c12.8 18.6 27.3 36.2 43.6 52.5C314.5 835 396.2 872.4 483.9 879z" fill="#0098FF"/>
    <path d="M311.9 512c0-26.4 5.1-51.7 14.5-74.8L180 352.7c-23.6 49.1-36.1 103.2-36.1 159.3s12.5 110.2 36.1 159.3l146.4-84.5c-9.4-23.1-14.5-48.4-14.5-74.8z" fill="#9F48E6"/>
    <path d="M208.1 304.2l146.3 84.5c31.2-39.7 77.1-67.4 129.5-74.7V145c-87.7 6.6-169.4 43.9-232.2 106.7-16.3 16.4-30.9 34-43.6 52.5z" fill="#FF3646"/>
    <path d="M539.9 145v169c52.4 7.3 98.3 35 129.5 74.8l146.3-84.5c-12.8-18.6-27.3-36.2-43.6-52.5-62.8-62.9-144.5-100.2-232.2-106.8z" fill="#FFA610"/>
    <path d="M879.9 512c0-56.1-12.5-110.2-36.1-159.3l-146.4 84.5c9.3 23.1 14.5 48.3 14.5 74.8 0 26.4-5.1 51.7-14.5 74.8l146.4 84.5c23.6-49.1 36.1-103.3 36.1-159.3z" fill="#FEDC00"/>
</svg>
